<svg xmlns="http://www.w3.org/2000/svg" width="32.5" height="32.5"><path data-name="Icon awesome-linkedin" d="M29.75.5H2.743A2.26 2.26 0 00.5 2.771v26.958A2.26 2.26 0 002.743 32H29.75A2.266 2.266 0 0032 29.729V2.771A2.266 2.266 0 0029.75.5zm-19.73 27H5.352V12.467h4.675V27.5zM7.686 10.414a2.707 2.707 0 112.707-2.707 2.708 2.708 0 01-2.707 2.707zM27.521 27.5h-4.669v-7.312c0-1.744-.035-3.987-2.426-3.987-2.433 0-2.805 1.9-2.805 3.86V27.5h-4.669V12.467h4.479v2.053h.063a4.917 4.917 0 014.423-2.426c4.725 0 5.6 3.115 5.6 7.165z" fill="#e4e4e4" stroke="#000"/></svg>