<svg xmlns="http://www.w3.org/2000/svg" width="32.5" height="32.5"><path data-name="Icon awesome-twitter-square" d="M28.625.5H3.875A3.376 3.376 0 00.5 3.875v24.75A3.376 3.376 0 003.875 32h24.75A3.376 3.376 0 0032 28.625V3.875A3.376 3.376 0 0028.625.5zm-3.438 11.166c.014.2.014.4.014.6a13.031 13.031 0 01-13.12 13.12A13.06 13.06 0 015 23.316a9.715 9.715 0 001.111.056 9.246 9.246 0 005.723-1.969 4.618 4.618 0 01-4.31-3.2 4.97 4.97 0 002.081-.084 4.612 4.612 0 01-3.691-4.528v-.056A4.608 4.608 0 008 14.12a4.6 4.6 0 01-2.058-3.84 4.554 4.554 0 01.626-2.33 13.094 13.094 0 009.506 4.823 4.621 4.621 0 017.868-4.212 9.036 9.036 0 002.925-1.111 4.6 4.6 0 01-2.025 2.538 9.177 9.177 0 002.658-.713 9.707 9.707 0 01-2.313 2.391z" fill="#e4e4e4" stroke="#000"/></svg>