<svg id="Layer_1" data-name="Layer 1" xmlns="http://www.w3.org/2000/svg" viewBox="0 0 1519.12 1519.68"><defs><style>.cls-1{fill:#1e1d1d}</style></defs><g id="logo"><g id="Group_7" data-name="Group 7"><path id="Path_13" data-name="Path 13" class="cls-1" d="M1465 885.5h-447.49V564.32h70.41v250.76h377z" transform="translate(-240.08 -241.3)"/></g><g id="Group_8" data-name="Group 8"><path id="Path_14" data-name="Path 14" class="cls-1" d="M923.22 883.08H637.77v-70.42h215V434.23h70.41z" transform="translate(-240.08 -241.3)"/></g><g id="Group_9" data-name="Group 9"><path id="Path_15" data-name="Path 15" class="cls-1" d="M920.18 1264.35h-70.45v-204.77H438.21v-70.42h482.06z" transform="translate(-240.08 -241.3)"/></g><g id="Group_10" data-name="Group 10"><path id="Rectangle_27" data-name="Rectangle 27" class="cls-1" d="M895.82 1097.75h176.89v70.42H895.82z"/></g><g id="Group_11" data-name="Group 11"><path id="Path_16" data-name="Path 16" class="cls-1" d="M1015.32 1761V988.15h332.28V1059h-261.28v625c376.9-47.8 643.7-392.09 595.9-769s-392.1-643.7-769-595.9-643.71 392.09-595.9 769a687.9 687.9 0 00543.94 587.28l-14.21 69.4c-410.86-84.27-675.61-485.65-591.34-896.51s485.66-675.61 896.51-591.34 675.61 485.66 591.34 896.52c-68.42 333.55-350.56 580.84-690.23 604.92z" transform="translate(-240.08 -241.3)"/></g></g></svg>